<?xml version="1.0" encoding="UTF-8" standalone="no"?>
<svg width="251px" height="280px" viewBox="0 0 251 280" version="1.1" xmlns="http://www.w3.org/2000/svg" xmlns:xlink="http://www.w3.org/1999/xlink" xmlns:sketch="http://www.bohemiancoding.com/sketch/ns">
    <!-- Generator: Sketch 3.0.4 (8054) - http://www.bohemiancoding.com/sketch -->
    <title>Slice 2</title>
    <desc>Created with Sketch.</desc>
    <defs></defs>
    <g id="Page-1" stroke="none" stroke-width="1" fill="none" fill-rule="evenodd" sketch:type="MSPage">
        <g id="jj_icon_red_contact" sketch:type="MSLayerGroup" transform="translate(69.000000, 146.000000)" fill="#D82340">
            <path d="M114.738,117.505 L116.223,117.505 C152.451,117.505 181.91,88.263 181.91,52.279 L181.91,8.5 C181.91,3.943 178.184,0.236 173.607,0.236 C169.021,0.236 165.295,3.943 165.295,8.5 L165.295,52.279 C165.295,79.127 143.287,101.045 116.223,101.045 L114.244,101.045 C113.714,106.537 113.648,112.089 114.738,117.505" id="Fill-6" sketch:type="MSShapeGroup"></path>
            <path d="M48.278,109.668 C48.278,123.105 37.384,134 23.944,134 C10.506,134 -0.389,123.105 -0.389,109.668 C-0.389,96.228 10.506,85.334 23.944,85.334 C37.384,85.334 48.278,96.228 48.278,109.668" id="Fill-7" sketch:type="MSShapeGroup"></path>
            <path d="M42.561,117.505 L116.223,117.505 L114.244,101.045 L42.561,101.045 L42.561,117.505" id="Fill-8" sketch:type="MSShapeGroup"></path>
        </g>
        <path d="M73.249242,147.8184 C73.3014735,148.340716 73.385044,148.868255 73.385044,149.442802 C73.385044,156.601136 67.639573,162.362277 60.4942964,162.362277 C53.3620776,162.362277 47.5983256,156.601136 47.5983256,149.442802 C47.5983256,142.313194 53.3620776,136.518103 60.4942964,136.518103 C61.0218351,136.518103 61.5702664,136.619955 62.1239209,136.719195 C61.7504653,137.664586 61.5128117,138.761449 61.5128117,139.803468 C61.5128117,144.55654 65.3492194,148.439956 70.1022908,148.439956 C71.2095998,148.439956 72.2620656,148.21536 73.249242,147.8184 L73.249242,147.8184 Z M60.4942964,128.179336 C48.7735356,128.179336 39.2151611,137.740322 39.2151611,149.442802 C39.2151611,161.140058 48.7735356,170.69321 60.4942964,170.69321 C72.2307267,170.69321 81.7708201,161.140058 81.7708201,149.442802 C81.7708201,137.740322 72.2307267,128.179336 60.4942964,128.179336 L60.4942964,128.179336 Z M60.4942964,180.656379 C43.2761644,180.656379 29.2676615,166.679215 29.2676615,149.442802 C29.2676615,132.195942 43.2761644,118.234448 60.4942964,118.234448 C77.7124283,118.234448 91.7235428,132.195942 91.7235428,149.442802 C91.7235428,166.679215 77.7124283,180.656379 60.4942964,180.656379 L60.4942964,180.656379 Z" id="Fill-21" fill="#D71F43" sketch:type="MSShapeGroup"></path>
        <path d="M164.954794,128.179336 C153.294099,128.179336 143.756617,137.740322 143.756617,149.442802 C143.756617,161.140058 153.294099,170.69321 164.954794,170.69321 C176.686001,170.69321 186.244375,161.140058 186.244375,149.442802 C186.244375,137.740322 176.686001,128.179336 164.954794,128.179336 L164.954794,128.179336 Z M164.954794,180.656379 C147.73405,180.656379 133.730771,166.679215 133.730771,149.442802 C133.730771,132.195942 147.73405,118.234448 164.954794,118.234448 C182.185984,118.234448 196.191875,132.195942 196.191875,149.442802 C196.191875,166.679215 182.185984,180.656379 164.954794,180.656379 L164.954794,180.656379 Z" id="Fill-20" fill="#D71F43" sketch:type="MSShapeGroup"></path>
        <path d="M177.657508,147.815789 C177.764583,148.338104 177.861211,148.865643 177.861211,149.44019 C177.861211,156.598525 172.045227,162.359665 164.905174,162.359665 C157.767732,162.359665 152.011815,156.598525 152.011815,149.44019 C152.011815,142.310583 157.767732,136.515492 164.905174,136.515492 C165.503225,136.515492 166.028152,136.617343 166.553079,136.716583 C166.174401,137.661975 165.921078,138.758837 165.921078,139.800857 C165.921078,144.553928 169.827998,148.437344 174.560177,148.437344 C175.659651,148.437344 176.722563,148.212749 177.657508,147.815789" id="Fill-19" fill="#D71F43" sketch:type="MSShapeGroup"></path>
        <path d="M164.495156,89.376514 L163.620278,89.376514 C157.127895,64.8877496 167.801413,39.1767669 189.122334,26.3121351 C191.491035,28.0253301 194.314151,29.0438454 197.390589,29.0438454 C205.264496,29.0438454 211.628911,22.731662 211.628911,14.8943173 C211.628911,7.08047671 205.264496,0.713450222 197.390589,0.713450222 C189.589806,0.713450222 183.233226,7.08047671 183.233226,14.8943173 C183.233226,15.3644013 183.348136,15.7848653 183.369028,16.2288335 C158.428461,31.1670581 145.48287,60.71706 151.721929,89.376514 L77.1404928,89.376514 C83.3664941,60.71706 70.4391844,31.1670581 45.4463855,16.2288335 C45.4986171,15.7848653 45.5743528,15.3644013 45.5743528,14.8943173 C45.5743528,7.08047671 39.2569463,0.713450222 31.4248247,0.713450222 C23.5900916,0.713450222 17.2387345,7.08047671 17.2387345,14.8943173 C17.2387345,22.731662 23.5900916,29.0438454 31.4248247,29.0438454 C34.5299906,29.0438454 37.3609409,28.0253301 39.6904682,26.3121351 C61.0061656,39.1767669 71.671849,64.8877496 65.202971,89.376514 L59.6585915,89.376514 C27.0399857,89.376514 0.540306557,115.891863 0.540306557,148.494799 L0.540306557,188.180334 C0.540306557,192.285734 3.88312604,195.639 8.00419569,195.639 C12.1304885,195.639 15.4759196,192.285734 15.4759196,188.180334 L15.4759196,148.494799 C15.4759196,124.162729 35.2951829,104.299069 59.6585915,104.299069 L164.495156,104.299069 C188.85073,104.299069 208.717002,124.162729 208.717002,148.494799 L208.717002,188.180334 C208.717002,192.285734 212.038929,195.639 216.144329,195.639 C220.315018,195.639 223.655226,192.285734 223.655226,188.180334 L223.655226,148.494799 C223.655226,115.891863 197.118985,89.376514 164.495156,89.376514" id="Fill-18" fill="#D71F43" sketch:type="MSShapeGroup"></path>
    </g>
</svg>